<?xml version="1.0" standalone="no"?>
<!DOCTYPE svg PUBLIC "-//W3C//DTD SVG 20010904//EN"
 "http://www.w3.org/TR/2001/REC-SVG-20010904/DTD/svg10.dtd">
<svg version="1.0" xmlns="http://www.w3.org/2000/svg"
 width="152.000000pt" height="152.000000pt" viewBox="0 0 152.000000 152.000000"
 preserveAspectRatio="xMidYMid meet">
<metadata>
Created by potrace 1.11, written by Peter Selinger 2001-2013
</metadata>
<g transform="translate(0.000000,152.000000) scale(0.100000,-0.100000)"
fill="#000000" stroke="none">
<path d="M292 1401 c-67 -23 -120 -66 -152 -122 l-25 -44 0 -470 c0 -465 0
-470 22 -511 12 -22 38 -55 58 -72 67 -60 89 -66 233 -70 l132 -4 0 84 0 84
-90 96 -90 96 0 210 0 209 51 69 c67 91 66 89 84 74 23 -19 20 -117 -5 -155
-15 -23 -20 -47 -20 -98 0 -64 1 -68 20 -62 19 6 20 2 20 -104 0 -158 -10
-151 228 -151 104 0 192 3 195 7 4 3 0 14 -9 24 -15 17 -13 22 39 76 l56 58
33 -32 32 -33 -64 -127 c-64 -127 -64 -128 -68 -225 l-4 -98 109 0 c127 0 165
9 230 54 34 23 57 50 78 91 l30 59 0 450 c0 436 -1 452 -21 496 -26 57 -71
102 -131 131 -48 24 -49 24 -483 26 -402 3 -439 1 -488 -16z m592 -223 c-91
-150 -283 -448 -289 -448 -3 0 -5 104 -5 230 l0 230 151 0 c117 0 149 -3 143
-12z m152 -169 l29 -31 -48 -44 c-27 -24 -54 -44 -61 -44 -7 0 -23 12 -37 26
l-24 25 50 48 c28 27 53 49 56 50 3 0 18 -13 35 -30z m20 -140 l29 -31 -53
-49 -54 -49 -28 17 c-16 9 -32 23 -35 31 -5 14 79 107 101 110 5 1 23 -12 40
-29z m28 -118 l28 -29 -59 -56 c-73 -70 -88 -75 -121 -43 l-25 25 64 66 c35
35 69 65 75 65 5 1 23 -12 38 -28z m-284 -216 c0 -40 -15 -51 -55 -41 -21 5
-25 12 -25 41 0 34 1 35 40 35 39 0 40 -1 40 -35z m-105 0 c0 -11 -59 -19 -82
-11 -8 3 -11 11 -8 16 8 14 90 9 90 -5z m220 0 c0 -5 -19 -11 -42 -13 -34 -3
-43 0 -43 13 0 13 9 16 43 13 23 -2 42 -7 42 -13z"/>
</g>
</svg>
